#!OML:ASF H:\Terrain\Patient Classification 1\Terrain2\Thursday\justin.ASF
:FULLY-SPECIFIED
:DEGREES
1752
root 16.9432 20.4909 -0.577973 187.172 33.0731 -171.693
lowerback 6.15575 1.85509 3.49926
upperback 2.27279 2.909 3.04536
thorax -1.09452 1.53335 0.96842
lowerneck -12.6326 -2.56805 -8.19042
upperneck 42.3447 3.18826 1.25257
head 17.8025 1.59215 3.10414
rclavicle 2.01766e-014 -4.69132e-014
rhumerus -27.4426 0.594648 -84.5832
rradius 33.7388
rwrist -6.94241
rhand -18.1931 13.2119
rfingers 7.12502
rthumb 8.08396 -16.6134
lclavicle 2.01766e-014 -4.69132e-014
lhumerus -37.3608 5.56375 82.6311
lradius 43.3343
lwrist 9.22508
lhand -19.6259 20.8171
lfingers 7.12502
lthumb 6.70099 50.6911
rfemur -13.7137 -12.6476 27.6765
rtibia 38.6013
rfoot -24.8567 -4.75169
rtoes 13.6997
lfemur -17.4079 -1.83851 -16.3614
ltibia 39.5022
lfoot -18.9044 -12.8578
ltoes 15.1058
1753
root 16.96 20.4926 -0.597167 186.942 32.3112 -172.255
lowerback 6.0355 2.09737 3.46294
upperback 2.18453 3.20004 2.70435
thorax -1.09826 1.66986 0.621771
lowerneck -12.3609 -2.82952 -7.82295
upperneck 42.3513 2.71739 1.23764
head 17.7646 1.48801 2.95117
rclavicle 1.18028e-013 2.08724e-014
rhumerus -27.6887 -1.04496 -84.3896
rradius 33.0601
rwrist -6.05934
rhand -17.9298 13.7951
rfingers 7.12502
rthumb 8.33812 -16.0203
lclavicle 1.18028e-013 2.08724e-014
lhumerus -37.4548 4.3247 82.8143
lradius 43.4141
lwrist 9.99057
lhand -20.4652 20.9908
lfingers 7.12502
lthumb 5.89068 50.8889
rfemur -13.7586 -13.0775 27.2685
rtibia 38.5938
rfoot -24.9828 -5.19123
rtoes 13.4415
lfemur -17.5337 -1.87901 -16.8011
ltibia 39.4821
lfoot -18.6647 -13.7596
ltoes 16.3447
1754
root 16.9739 20.4845 -0.624446 186.583 31.3359 -172.794
lowerback 5.96298 2.01534 3.22486
upperback 2.17523 3.06475 2.58948
thorax -1.07534 1.59926 0.647887
lowerneck -12.1929 -2.86224 -7.63554
upperneck 42.2866 2.71887 1.02866
head 17.6894 1.50885 2.81831
rclavicle -3.44643e-014 -2.28602e-014
rhumerus -27.8934 -1.8372 -84.2102
rradius 32.4826
rwrist -5.15735
rhand -17.8409 14.2487
rfingers 7.12502
rthumb 8.42388 -15.5633
lclavicle -3.44643e-014 -2.28602e-014
lhumerus -37.6867 4.10211 82.847
lradius 43.4152
lwrist 10.2054
lhand -20.8313 20.5213
lfingers 7.12502
lthumb 5.53722 50.4289
rfemur -13.5634 -13.9511 26.7849
rtibia 38.5782
rfoot -25.2083 -5.42791
rtoes 12.9545
lfemur -17.479 -2.01967 -17.2707
ltibia 39.477
lfoot -18.6986 -14.3919
ltoes 15.8039
1755
root 16.9961 20.4747 -0.645527 186.44 30.3954 -172.628
lowerback 6.13764 1.9734 3.4607
upperback 2.14414 3.04228 2.6683
thorax -1.19699 1.58994 0.590949
lowerneck -12.0162 -2.94156 -7.79024
upperneck 42.2976 2.59232 1.24578
head 17.6514 1.48275 2.92681
rclavicle 3.4017e-014 -2.40529e-014
rhumerus -28.1943 -2.24036 -84.1801
rradius 32.0003
rwrist -5.53621
rhand -18.7251 13.6919
rfingers 7.12502
rthumb 7.57052 -16.1526
lclavicle 3.4017e-014 -2.40529e-014
lhumerus -37.9942 4.02487 82.7926
lradius 43.4866
lwrist 9.93378
lhand -20.307 21.4024
lfingers 7.12502
lthumb 6.04341 51.2962
rfemur -13.1761 -14.2225 27.0466
rtibia 38.5402
rfoot -25.5158 -6.02915
rtoes 12.3531
lfemur -17.2656 -2.27982 -16.9704
ltibia 39.5052
lfoot -18.9375 -15.0174
ltoes 15.6134
1756
root 17.0231 20.4737 -0.663006 186.453 29.5744 -172.175
lowerback 6.35494 2.11796 4.03314
upperback 2.08417 3.29648 2.74258
thorax -1.3485 1.71901 0.320807
lowerneck -11.688 -3.13054 -8.03817
upperneck 42.2815 2.26559 1.60638
head 17.5688 1.38986 3.08167
rclavicle 8.03835e-014 -1.59028e-015
rhumerus -28.4692 -3.09031 -84.0522
rradius 31.4478
rwrist -5.94764
rhand -19.3491 12.9471
rfingers 7.12502
rthumb 6.9682 -16.9182
lclavicle 8.03835e-014 -1.59028e-015
lhumerus -38.1722 3.78506 82.664
lradius 43.4465
lwrist 9.10985
lhand -18.9876 22.8819
lfingers 7.12502
lthumb 7.31716 52.7353
rfemur -12.8502 -13.9333 27.701
rtibia 38.456
rfoot -25.4393 -7.27832
rtoes 10.3611
lfemur -17.146 -2.71694 -16.3213
ltibia 39.5838
lfoot -18.7611 -15.7617
ltoes 18.054
1757
root 17.0399 20.4736 -0.688096 186.329 28.7515 -172.328
lowerback 6.26621 2.24427 4.19647
upperback 2.11274 3.46497 2.64618
thorax -1.25009 1.80478 0.124892
lowerneck -11.6781 -3.29973 -8.07892
upperneck 42.2812 1.99939 1.74593
head 17.582 1.3085 3.11264
rclavicle -2.65874e-015 2.18663e-014
rhumerus -28.4524 -4.19705 -83.8437
rradius 30.8086
rwrist -5.36959
rhand -19.3242 12.6547
rfingers 7.12502
rthumb 6.99218 -17.2098
lclavicle -2.65874e-015 2.18663e-014
lhumerus -38.0097 3.70827 82.5035
lradius 43.1615
lwrist 8.25238
lhand -18.2181 22.0048
lfingers 7.12502
lthumb 8.05983 51.8311
rfemur -12.7187 -14.3049 27.6544
rtibia 38.3744
rfoot -24.9436 -8.19063
rtoes 7.51961
lfemur -17.1549 -3.27767 -16.3427
ltibia 39.6777
lfoot -18.3431 -16.5299
ltoes 21.6807
1758
root 17.054 20.464 -0.711613 186.331 27.8975 -172.279
lowerback 6.12321 2.24261 4.39022
upperback 2.13714 3.47098 2.69488
thorax -1.13687 1.81271 0.0748546
lowerneck -11.845 -3.37168 -8.05084
upperneck 42.3442 1.93651 1.74949
head 17.6685 1.29483 3.10919
rclavicle -5.38209e-014 -2.42517e-014
rhumerus -28.4667 -4.96216 -83.6514
rradius 30.232
rwrist -4.32637
rhand -19.2146 12.5975
rfingers 7.12502
rthumb 7.09797 -17.2635
lclavicle -5.38209e-014 -2.42517e-014
lhumerus -37.9249 3.77627 82.5186
lradius 42.8602
lwrist 8.11438
lhand -18.633 20.3872
lfingers 7.12502
lthumb 7.65936 50.2285
rfemur -12.6223 -14.8901 27.7512
rtibia 38.3601
rfoot -24.7703 -8.64798
rtoes 6.55225
lfemur -17.1822 -3.62748 -16.1984
ltibia 39.7453
lfoot -18.0882 -17.3843
ltoes 23.6303
1759
root 17.0714 20.4541 -0.732823 186.462 27.1062 -172.055
lowerback 6.00448 2.24024 4.64794
upperback 2.0731 3.48622 2.80432
thorax -1.12808 1.82262 0.0473627
lowerneck -11.7761 -3.33633 -7.87456
upperneck 42.2449 2.013 1.60357
head 17.5886 1.34893 3.01963
rclavicle 1.20265e-014 -2.28602e-014
rhumerus -28.6545 -5.37046 -83.5542
rradius 29.6918
rwrist -3.67713
rhand -19.2664 12.9709
rfingers 7.12502
rthumb 7.04803 -16.8918
lclavicle 1.20265e-014 -2.28602e-014
lhumerus -38.0782 3.81586 82.5636
lradius 42.6115
lwrist 8.391
lhand -19.9059 20.064
lfingers 7.12502
lthumb 6.43061 49.9464
rfemur -12.6239 -14.9778 28.1097
rtibia 38.4613
rfoot -24.965 -9.24031
rtoes 6.77741
lfemur -17.2922 -3.86459 -15.8623
ltibia 39.767
lfoot -18.1353 -18.0059
ltoes 23.2413
1760
root 17.0884 20.4477 -0.756378 186.285 26.3851 -172.357
lowerback 5.91467 2.2798 4.43591
upperback 2.10105 3.51719 2.7811
thorax -1.05955 1.83855 0.144192
lowerneck -11.8263 -3.30698 -7.74886
upperneck 42.1716 2.06809 1.53763
head 17.5554 1.39133 2.97569
rclavicle 4.56708e-014 3.69739e-014
rhumerus -28.7707 -5.41566 -83.5623
rradius 29.2943
rwrist -3.7011
rhand -19.5029 13.3333
rfingers 7.12502
rthumb 6.81969 -16.5368
lclavicle 4.56708e-014 3.69739e-014
lhumerus -38.1376 3.90027 82.5438
lradius 42.3371
lwrist 8.60949
lhand -19.9212 20.2339
lfingers 7.12502
lthumb 6.41589 50.1167
rfemur -12.5515 -14.9473 27.9385
rtibia 38.6201
rfoot -25.2408 -9.89602
rtoes 7.15176
lfemur -17.2965 -4.23652 -16.0756
ltibia 39.7901
lfoot -18.5592 -18.2634
ltoes 21.4154
